<?xml version="1.0" encoding="UTF-8" standalone="no"?>
<!-- Created with Inkscape (http://www.inkscape.org/) -->

<svg
   xmlns:dc="http://purl.org/dc/elements/1.1/"
   xmlns:cc="http://creativecommons.org/ns#"
   xmlns:rdf="http://www.w3.org/1999/02/22-rdf-syntax-ns#"
   xmlns:svg="http://www.w3.org/2000/svg"
   xmlns="http://www.w3.org/2000/svg"
   xmlns:sodipodi="http://sodipodi.sourceforge.net/DTD/sodipodi-0.dtd"
   xmlns:inkscape="http://www.inkscape.org/namespaces/inkscape"
   width="400"
   height="400"
   viewBox="0 0 105.83333 105.83334"
   version="1.1"
   id="svg3741"
   sodipodi:docname="desenhando.svg"
   inkscape:version="0.92.5 (2060ec1f9f, 2020-04-08)">
  <defs
     id="defs3735" />
  <sodipodi:namedview
     id="base"
     pagecolor="#ffffff"
     bordercolor="#666666"
     borderopacity="1.0"
     inkscape:pageopacity="0.0"
     inkscape:pageshadow="2"
     inkscape:zoom="1.979899"
     inkscape:cx="244.14531"
     inkscape:cy="210.29437"
     inkscape:document-units="mm"
     inkscape:current-layer="layer1"
     showgrid="false"
     units="px"
     inkscape:window-width="1920"
     inkscape:window-height="1017"
     inkscape:window-x="1912"
     inkscape:window-y="-8"
     inkscape:window-maximized="1" />
  <metadata
     id="metadata3738">
    <rdf:RDF>
      <cc:Work
         rdf:about="">
        <dc:format>image/svg+xml</dc:format>
        <dc:type
           rdf:resource="http://purl.org/dc/dcmitype/StillImage" />
        <dc:title></dc:title>
      </cc:Work>
    </rdf:RDF>
  </metadata>
  <g
     inkscape:label="Camada 1"
     inkscape:groupmode="layer"
     id="layer1"
     transform="translate(0,-191.16665)">
    <path
       style="fill:#000000;stroke-width:0.12558903"
       d="m 54.743109,283.33371 c -7.638268,-0.17122 -10.996414,-0.81734 -12.551658,-2.415 -0.436472,-0.44837 -0.494974,-0.57942 -0.493962,-1.10652 0.0033,-1.72759 2.52183,-3.44058 6.514789,-4.43109 1.305624,-0.32388 1.38608,-0.36243 1.468942,-0.70373 0.04821,-0.19859 0.263536,-1.26531 0.478495,-2.37049 0.214959,-1.10518 0.472304,-2.28813 0.57188,-2.62877 0.27772,-0.95006 0.25314,-1.02357 -0.415499,-1.24275 -1.709992,-0.56055 -3.377827,-1.71159 -4.509457,-3.11219 -0.38466,-0.47609 -0.741911,-0.86561 -0.793889,-0.86561 -0.05198,0 -0.229287,0.10429 -0.394019,0.23177 -0.525849,0.40692 -2.713887,1.65057 -3.672651,2.0875 -2.186445,0.99639 -4.206702,1.34732 -5.099268,0.88575 -0.515992,-0.26683 -0.883976,-0.78962 -0.883976,-1.25587 0,-0.64516 0.524691,-0.97997 2.491719,-1.59005 3.584299,-1.11168 4.846863,-1.53908 5.985541,-2.02625 l 1.25589,-0.53731 0.156711,-1.49596 c 0.264098,-2.52108 0.757558,-4.08173 2.324454,-7.35141 1.124652,-2.34686 1.655603,-3.72035 1.903488,-4.92409 0.244038,-1.18503 0.249612,-1.48095 0.0279,-1.48095 -0.0943,0 -0.323451,-0.11958 -0.509232,-0.26571 -0.478856,-0.37667 -0.412352,-0.94438 0.145527,-1.24227 0.685679,-0.36613 0.78651,-0.50137 0.783259,-1.05059 -0.017,-2.86902 -2.317095,-5.01027 -7.166106,-6.67118 -0.909161,-0.31142 -1.722231,-0.5662 -1.806823,-0.5662 -0.08459,0 -0.357596,0.40974 -0.606677,0.91052 -1.804006,3.62701 -5.526424,4.86266 -9.158148,3.04002 -3.073469,-1.54247 -5.248152,-4.6636 -6.185097,-8.87696 l -0.215783,-0.97036 -0.364818,0.18866 c -0.360377,0.18635 -0.36482,0.20199 -0.365012,1.28433 -2.72e-4,1.19329 -0.247325,1.93821 -0.669081,2.01696 -0.805269,0.15034 -1.340149,-0.64907 -1.340149,-2.00295 0,-0.78462 0.01825,-0.8319 0.505682,-1.31043 0.278124,-0.27304 0.857404,-0.66599 1.287287,-0.87321 l 0.781606,-0.37677 0.08588,-1.03592 c 0.240479,-2.90064 1.209852,-5.74619 2.777584,-8.15348 0.48336,-0.7422 0.587634,-1.02687 0.774192,-2.11362 0.871109,-5.07439 2.441473,-8.19887 5.147674,-10.24206 0.938567,-0.70864 4.316172,-2.39455 5.59461,-2.79254 2.822628,-0.87869 5.428486,-0.78511 8.602848,0.30895 0.848212,0.29235 3.094975,1.24504 3.964147,1.68092 l 0.573239,0.28749 0.223087,-0.95889 c 0.26658,-1.14585 0.69674,-2.03979 1.154986,-2.40024 0.466982,-0.36732 0.650784,-0.33355 1.168369,0.21469 0.503972,0.53382 1.050207,1.82991 1.373715,3.25949 0.173653,0.76739 0.255774,0.93161 0.496113,0.9921 0.332529,0.0837 2.550939,-0.005 5.17511,-0.2062 2.890425,-0.22196 5.833301,-0.0156 8.147116,0.57138 3.375181,0.85619 5.839225,2.84841 7.225985,5.84234 l 0.398848,0.86108 0.605057,-0.43018 c 1.649328,-1.17262 3.419454,-0.70517 4.448908,1.17489 0.356879,0.65174 0.449433,0.973 0.497884,1.72807 0.133431,2.07902 -0.984201,3.18564 -3.217327,3.18564 H 78.69675 l -0.09006,0.72087 c -0.321403,2.57239 -1.516606,4.87838 -3.536117,6.82247 -1.735937,1.6711 -3.145874,2.53866 -8.548209,5.25989 -6.058982,3.05201 -8.562438,4.98288 -8.573983,6.61293 -0.0049,0.6965 0.221259,1.12017 0.688174,1.28899 0.603793,0.21834 0.981067,0.73066 0.901073,1.22362 -0.05758,0.35481 0.03363,0.4862 1.002751,1.44431 5.094916,5.03709 7.454824,11.1193 6.207672,15.99909 -0.375537,1.46938 -1.370239,3.36875 -2.311571,4.41391 l -0.784704,0.87127 0.222752,2.69493 c 0.122513,1.48223 0.24973,2.7656 0.282708,2.85195 0.03914,0.10247 0.333838,0.15715 0.848829,0.15748 0.433881,0 1.777765,0.14433 2.986413,0.32009 3.556069,0.51715 5.520277,1.31333 7.107955,2.88115 1.556969,1.53751 1.729295,2.97784 0.486794,4.06879 -0.577349,0.50691 -1.551797,0.84191 -2.939918,1.01069 -1.071971,0.13033 -1.226049,0.18349 -1.654899,0.57094 -0.506799,0.45786 -1.122841,0.8182 -1.398824,0.8182 -0.09343,0 -0.400846,0.16984 -0.683139,0.37744 -0.940415,0.69159 -1.351798,0.77025 -4.622577,0.88382 -2.837877,0.0985 -6.100293,0.10963 -9.544767,0.0324 z m 7.267321,-1.03403 c 1.008873,-0.10576 1.205458,-0.21967 1.206787,-0.69922 9.89e-4,-0.36924 -0.547045,-1.45264 -0.944323,-1.86671 -0.342972,-0.35748 -0.343239,-0.35912 -0.04416,-0.27223 0.755897,0.21962 1.279031,0.86985 1.5476,1.92357 0.207471,0.814 0.469243,0.93268 1.914702,0.86805 0.889876,-0.0398 1.289917,-0.11991 1.758245,-0.3521 0.542396,-0.26891 0.610321,-0.34926 0.644721,-0.76272 0.05459,-0.65614 -0.36432,-1.39656 -1.345134,-2.3775 -0.709911,-0.70999 -0.778612,-0.81543 -0.474451,-0.7282 1.034839,0.29679 1.785765,1.12713 2.226939,2.46243 0.303,0.9171 0.401096,1.03771 0.846484,1.04068 0.798663,0.005 1.871024,-0.98875 2.180363,-2.02124 0.12718,-0.42449 0.106797,-0.5471 -0.189737,-1.14144 -0.206761,-0.41439 -0.542217,-0.82299 -0.888279,-1.08195 -1.022682,-0.76527 -3.586868,-1.70126 -5.722747,-2.08893 -1.243748,-0.22574 -4.741958,-0.57189 -5.779474,-0.57189 h -0.715571 l -0.160597,-2.75312 c -0.161577,-2.76982 -0.143104,-3.15119 0.152469,-3.14765 0.553666,0.007 0.676288,0.50875 0.800701,3.27889 l 0.08812,1.96213 1.331504,0.0852 c 4.486595,0.28721 7.756761,0.91168 9.541078,1.82197 0.725851,0.37031 1.612963,1.20338 1.917857,1.80102 0.136141,0.26685 0.281597,0.77283 0.323232,1.12438 0.04368,0.36882 0.173558,0.73706 0.307039,0.87055 0.46941,0.4694 1.736661,0.21069 2.49323,-0.50903 0.438182,-0.41682 0.501062,-0.54693 0.501062,-1.03665 0,-1.73119 -2.678821,-3.54957 -6.424837,-4.36118 -1.172299,-0.25399 -4.417607,-0.64362 -5.360779,-0.64362 h -0.489748 l -0.0739,-0.59654 c -0.04065,-0.3281 -0.170295,-1.88517 -0.288109,-3.46015 l -0.214205,-2.86359 0.627513,-0.65289 c 1.204339,-1.25308 1.87492,-2.30193 2.360716,-3.69238 1.396847,-3.99809 -0.14048,-8.79803 -4.560387,-14.23876 -0.697071,-0.85808 -1.53753,-1.85717 -1.867694,-2.2202 l -0.600291,-0.66007 -1.50707,0.19089 c -1.751609,0.22188 -2.393148,0.37412 -3.284471,0.77942 -0.355906,0.16184 -1.226098,0.40457 -1.933761,0.53942 -0.70766,0.13484 -1.305832,0.26435 -1.329271,0.28778 -0.02345,0.0234 -0.128808,0.497 -0.234158,1.05234 -0.310923,1.63906 -0.743536,2.76602 -2.546472,6.63359 -1.51243,3.24436 -2.130144,5.36409 -2.179476,7.47898 -0.02175,0.93262 0.01972,1.17174 0.315147,1.81702 0.478881,1.04603 1.198254,1.95087 2.106764,2.64996 0.853854,0.65702 2.551304,1.57517 3.360235,1.81753 0.391552,0.11731 0.512323,0.21624 0.508481,0.41654 -0.0028,0.14449 -0.384255,1.78812 -0.847744,3.65253 l -0.842709,3.38982 -1.695432,0.59129 c -0.932487,0.32521 -2.341687,0.91594 -3.131554,1.31276 -3.840691,1.92943 -3.45863,3.37211 1.12215,4.23729 1.285606,0.24282 4.34152,0.5702 6.467833,0.69291 2.366819,0.1366 7.80229,0.14923 9.025569,0.021 z m -9.938582,-14.8971 c -0.757409,-0.20393 -1.23666,-0.43374 -2.038327,-0.97745 -0.752843,-0.51061 -2.116629,-1.82061 -2.336012,-2.24391 -0.390937,-0.75429 -0.06413,-1.70533 0.946206,-2.75353 l 0.641857,-0.66591 -0.18731,-0.94646 c -0.196313,-0.99197 -0.498712,-4.01277 -0.410526,-4.10096 0.02815,-0.0281 0.207347,0.55706 0.398222,1.30047 0.190873,0.74341 0.56834,1.94479 0.838814,2.66974 0.410246,1.09959 0.462458,1.339 0.314952,1.44428 -0.09725,0.0694 -0.433905,0.30599 -0.748129,0.52576 -0.703085,0.49171 -0.986099,0.90695 -1.002067,1.47023 -0.01539,0.54289 0.477954,1.27908 1.271419,1.89727 0.520862,0.40579 0.591825,0.43001 0.666599,0.22737 0.04603,-0.12473 0.175933,-0.48804 0.288682,-0.80737 0.191831,-0.54328 1.06061,-1.7047 1.06882,-1.42882 0.002,0.0691 -0.07969,0.43642 -0.181664,0.81633 -0.101973,0.37989 -0.186073,1.0144 -0.186893,1.40997 -0.0012,0.62649 0.03838,0.74537 0.307696,0.92183 0.421211,0.27599 1.16303,0.35844 1.765437,0.19623 l 0.49995,-0.13462 v -1.37881 c 0,-0.85402 0.05379,-1.4326 0.14131,-1.52012 0.10469,-0.1047 0.164338,0.0157 0.23016,0.46468 0.129762,0.88501 0.505037,1.6735 0.796504,1.6735 0.447509,0 1.367939,-0.83787 1.727278,-1.57233 0.28196,-0.5763 0.328504,-0.80438 0.268147,-1.31401 -0.04017,-0.33917 -0.16105,-0.78687 -0.268626,-0.99489 -0.107573,-0.20803 -0.281547,-0.90338 -0.386603,-1.54523 -0.105056,-0.64183 -0.356958,-2.18173 -0.559781,-3.422 -0.202821,-1.24025 -0.353558,-2.27022 -0.334969,-2.2888 0.06902,-0.069 1.099723,3.08515 1.453044,4.44665 0.201235,0.77543 0.473848,1.56665 0.605809,1.75824 0.697323,1.01246 0.788187,2.28444 0.247546,3.46536 -0.405728,0.88623 -0.616326,1.16661 -1.694893,2.25652 -0.714838,0.72236 -0.965149,0.88992 -1.641607,1.09891 -0.927862,0.28665 -1.578826,0.30015 -2.501045,0.0519 z m -12.901779,-0.3328 c 0.962882,-0.31315 2.783837,-1.16925 4.428955,-2.08224 0.965531,-0.53584 1.26886,-0.76315 1.208099,-0.90531 -0.04462,-0.10441 -0.108354,-0.47862 -0.141625,-0.83159 l -0.06049,-0.64176 -1.022015,0.435 c -2.499466,1.06387 -5.208223,2.07116 -6.208467,2.30872 -1.526248,0.36249 -1.808423,0.52623 -1.759772,1.02115 0.04573,0.46526 0.527214,0.79972 1.376783,0.95638 0.666504,0.12292 1.193789,0.0599 2.178537,-0.26035 z m 13.814792,-22.89792 c 1.21037,-0.42108 1.941254,-0.5968 2.825754,-0.67942 1.318222,-0.1231 1.673404,-0.22003 1.582668,-0.43189 -0.368177,-0.85966 -0.472783,-1.5312 -0.340852,-2.18814 0.210074,-1.04603 0.987248,-2.17923 2.059105,-3.00241 0.446073,-0.34258 0.322478,-0.40735 -0.537963,-0.28194 -0.379905,0.0554 -1.14286,0.10477 -1.695452,0.10977 -0.866276,0.008 -1.114243,-0.0428 -1.799655,-0.36701 -0.437221,-0.20683 -1.106925,-0.46676 -1.488236,-0.5776 -0.381311,-0.11086 -0.786537,-0.31202 -0.900507,-0.44704 -0.11397,-0.13502 -0.623614,-0.66122 -1.132543,-1.16934 l -0.925326,-0.92383 0.06973,-0.85892 c 0.168034,-2.06974 0.482181,-2.83655 1.191072,-2.90729 0.414298,-0.0414 0.607938,0.11907 1.183956,0.98085 0.227243,0.33997 0.431983,0.4739 0.903677,0.59115 0.506566,0.12591 0.79558,0.33332 1.706278,1.22449 1.163028,1.13809 1.356925,1.22114 2.033754,0.87114 0.883919,-0.4571 2.498386,-0.0351 4.13208,1.08005 l 0.730708,0.49877 1.675366,-0.67227 c 4.320759,-1.73378 7.425359,-3.6506 9.717134,-5.99948 3.048103,-3.12404 4.069366,-6.10823 3.324854,-9.71543 -0.754328,-3.65475 -3.09873,-6.50341 -6.817206,-8.2835 -2.920125,-1.39791 -6.00189,-1.74579 -9.963055,-1.12467 -0.690741,0.10831 -1.976458,0.20364 -2.85715,0.21184 -1.36343,0.0127 -1.600684,0.0441 -1.597383,0.21112 0.0022,0.10791 0.06024,0.62007 0.129132,1.13812 0.169789,1.27684 0.16844,4.75857 -0.0022,5.83989 -0.267649,1.69541 -0.763916,2.69072 -1.476747,2.96174 -0.619805,0.23564 -1.378622,-0.44439 -2.100181,-1.88215 -0.425558,-0.84797 -0.949426,-2.66952 -0.949426,-3.3013 0,-0.19407 -0.03044,-0.35286 -0.06764,-0.35286 -0.03721,0 -0.588225,0.38447 -1.224492,0.8544 -3.914418,2.89101 -7.802239,5.56429 -11.672611,8.02615 l -1.222173,0.77739 0.647958,1.04232 c 0.888048,1.42853 1.9047,3.60001 2.315485,4.94565 0.303648,0.99471 0.342439,1.32428 0.346193,2.94127 0.0033,1.43287 -0.04188,1.93898 -0.212092,2.37438 -0.118975,0.30434 -0.191848,0.57782 -0.161939,0.60772 0.02991,0.0299 1.2032,0.43668 2.607314,0.90392 3.019469,1.00476 3.885338,1.36045 4.952405,2.03437 1.778749,1.12337 2.812474,2.94247 2.812474,4.94924 0,0.49598 0.03184,0.55895 0.282575,0.55885 0.155417,-6e-5 1.017271,-0.25571 1.915233,-0.5681 z m -17.420913,-3.88152 c 1.334475,-0.35523 2.426702,-1.32269 3.157485,-2.79681 0.702817,-1.41768 1.08047,-3.39006 0.985397,-5.14643 -0.112901,-2.08572 -1.454571,-5.33008 -3.865348,-9.34698 -0.638248,-1.06346 -1.188038,-1.98063 -1.221755,-2.03814 -0.03372,-0.0575 0.100333,-0.0205 0.29789,0.0822 0.45064,0.23427 1.234198,1.00663 1.647199,1.62365 0.173378,0.25903 0.362748,0.47096 0.420821,0.47096 0.196141,0 5.528029,-3.644 7.757572,-5.3018 2.078556,-1.54554 5.267236,-4.07288 6.328341,-5.01583 l 0.47288,-0.42023 0.02948,-1.60719 0.02948,-1.60719 -1.94663,-0.79197 c -1.070647,-0.4356 -2.511783,-1.02236 -3.202521,-1.30393 -2.070255,-0.84392 -3.810445,-1.08095 -5.693116,-0.77545 -0.965715,0.15671 -3.959396,1.31346 -5.421513,2.09485 -1.913818,1.02281 -2.889875,1.78647 -3.913424,3.06182 -1.141242,1.42202 -1.752083,2.95504 -2.797226,7.02012 -0.36406,1.41602 -0.776426,2.80064 -0.916367,3.07694 -0.464068,0.91624 -1.136462,2.86693 -1.55844,4.5212 -0.391077,1.53314 -0.416063,1.75899 -0.409884,3.70489 0.006,1.88348 0.03769,2.17515 0.348202,3.20252 0.45491,1.50512 1.185181,2.9592 1.992586,3.96753 2.170177,2.71024 5.023536,3.97891 7.478897,3.3253 z m -3.97472,-1.45308 c -1.861394,-0.66959 -3.360579,-2.69623 -4.06821,-5.4995 -0.375596,-1.48792 -0.400141,-5.0554 -0.04598,-6.68251 0.447457,-2.0557 1.453191,-4.33765 2.536946,-5.75618 0.07746,-0.1014 1.309722,0.54322 2.261216,1.18288 3.67394,2.4699 6.206128,6.97567 6.206128,11.04317 0,0.64829 -0.06226,1.4782 -0.138363,1.84423 -0.37028,1.78105 -1.615791,3.30714 -3.132293,3.83792 -1.055836,0.36955 -2.639046,0.38266 -3.619445,0.03 z m 25.948235,-1.95343 c 0.212071,-0.0648 0.197457,-0.40407 -0.05048,-1.17174 -0.181756,-0.56277 -0.249443,-0.64236 -0.546306,-0.64236 -0.374593,0 -1.087165,-0.47912 -1.751251,-1.17751 -0.238041,-0.25034 -0.469237,-0.45515 -0.513768,-0.45515 -0.04453,0 -0.14989,0.30797 -0.234128,0.68439 -0.08424,0.37641 -0.290639,0.88698 -0.458666,1.13458 -0.279311,0.41159 -0.286738,0.45725 -0.0866,0.53246 0.120396,0.0453 0.529733,0.28105 0.909638,0.52398 1.012634,0.64755 1.885198,0.83006 2.731561,0.57135 z m 3.346517,-0.1884 c 0.456126,-0.0794 0.82932,-0.18996 0.82932,-0.24559 0,-0.20622 -1.118909,-1.24361 -1.613441,-1.4959 -0.552377,-0.2818 -1.507591,-0.34704 -1.912044,-0.13058 -0.220634,0.11808 -0.227179,0.16258 -0.06926,0.47096 0.09592,0.1873 0.215624,0.64484 0.266017,1.01674 l 0.09162,0.67619 0.789235,-0.0737 c 0.434081,-0.0405 1.16243,-0.13868 1.618557,-0.21812 z m -7.360192,-1.71989 c 0.310204,-0.4426 0.69797,-1.61995 0.609487,-1.85053 -0.03739,-0.0974 -0.311071,-0.23677 -0.608193,-0.30967 -0.297121,-0.0729 -0.702553,-0.21848 -0.900961,-0.32354 -0.330404,-0.17493 -0.375122,-0.17226 -0.531717,0.0318 -0.09404,0.12253 -0.231574,0.43837 -0.305644,0.70189 -0.205755,0.73208 0.02755,1.28211 0.733805,1.72999 0.316948,0.20101 0.61787,0.36547 0.668718,0.36547 0.05085,0 0.201373,-0.15542 0.334505,-0.34537 z m 27.852094,-14.73357 c 0.339706,-0.35457 0.368869,-0.45798 0.368869,-1.30787 0,-0.8233 -0.04064,-0.9803 -0.376767,-1.45546 -0.853165,-1.20608 -2.005003,-1.67384 -2.936097,-1.19236 -0.553728,0.28635 -0.902011,0.88045 -0.767649,1.30946 0.05703,0.1821 0.137218,0.48459 0.178196,0.67221 l 0.07451,0.34113 0.582525,-0.30973 c 0.766646,-0.40763 1.347798,-0.40516 1.730078,0.007 0.320842,0.34619 0.57329,1.17122 0.57329,1.87356 0,0.54661 0.09835,0.55721 0.573048,0.0617 z M 54.557884,207.35639 c -0.396864,-1.45142 -0.801015,-1.91891 -1.129042,-1.30599 -0.23294,0.43526 -0.146755,0.7271 0.291002,0.98538 0.253728,0.14971 0.533894,0.4816 0.705115,0.8353 0.15626,0.32277 0.310614,0.56038 0.343009,0.52797 0.0324,-0.0324 -0.06214,-0.50159 -0.210084,-1.04266 z"
       id="path3724"
       inkscape:connector-curvature="0" />
  </g>
</svg>
